<mxfile host="app.diagrams.net" modified="2023-09-14T05:38:13.142Z" agent="Mozilla/5.0 (Windows NT 10.0; Win64; x64) AppleWebKit/537.36 (KHTML, like Gecko) Chrome/116.0.0.0 Safari/537.36" version="21.7.5" etag="7Z1zI5gxnjADn4Rum1pv" type="github">
  <diagram name="페이지-1" id="26_DiH9ZsOGo8-P1_zIJ">
    <mxGraphModel>
      <root>
        <mxCell id="0" />
        <mxCell id="1" parent="0" />
      </root>
    </mxGraphModel>
  </diagram>
</mxfile>
